Coordinates
version=1
nRows=22
nColumns=24
inDegrees=yes

Units are S.I. units (second, meters, Newtons, ...)
Angles are in degrees.

endheader
time	pelvis_tilt	pelvis_list	pelvis_rotation	pelvis_tx	pelvis_ty	pelvis_tz	hip_flexion_r	hip_adduction_r	hip_rotation_r	knee_angle_r	ankle_angle_r	subtalar_angle_r	mtp_angle_r	hip_flexion_l	hip_adduction_l	hip_rotation_l	knee_angle_l	ankle_angle_l	subtalar_angle_l	mtp_angle_l	lumbar_extension	lumbar_bending	lumbar_rotation
      4.06000000	      3.52223089	      5.23251891	      4.58579807	     -2.85323352	      0.92316385	      0.25401888	     19.93758910	     -5.09432924	    -11.02531555	      0.09822203	      5.78030778	      9.75882137	      0.00000000	    -22.46995984	      6.63782366	     10.83538716	     -6.88321319	     18.27952974	    -10.28409442	      0.00000000	    -28.95445094	     -6.44737300	     -8.80037827
      4.07000000	      3.90506259	      4.73749357	      4.63614206	     -2.83798741	      0.92201234	      0.25470136	     19.94203239	     -4.45018406	    -10.58967060	     -1.60267217	      5.36789277	      8.47042357	      0.00000000	    -23.16538499	      5.98275742	     10.47470208	     -8.14112776	     18.24236296	     -9.67475161	      0.00000000	    -29.15028581	     -5.67892405	     -8.58824906
      4.08000000	      4.24567058	      4.17154421	      4.57409857	     -2.82262353	      0.92103661	      0.25544129	     20.10210161	     -3.71274194	     -9.93439392	     -3.71090559	      4.44143053	      6.41653182	      0.00000000	    -23.68644205	      5.32780343	     10.11080255	     -9.62866530	     17.95946912	     -9.20268952	      0.00000000	    -29.26508265	     -4.86477275	     -8.21397418
      4.09000000	      4.61250615	      3.54264856	      4.40611443	     -2.80713590	      0.92039058	      0.25628767	     20.28641960	     -2.87202048	     -9.01717598	     -6.03431668	      3.01392440	      3.78403028	      0.00000000	    -24.09285087	      4.66432326	      9.57937914	    -11.37007818	     17.45154359	     -8.63475922	      0.00000000	    -29.39246299	     -4.00307028	     -7.71721762
      4.10000000	      5.05200552	      2.84646722	      4.08763197	     -2.79146442	      0.92013771	      0.25739070	     20.41302482	     -1.88772131	     -7.88610364	     -8.45530039	      1.30649860	      0.90532211	      0.00000000	    -24.43760024	      3.98672315	      8.68278403	    -13.35227925	     16.67671311	     -7.87879934	      0.00000000	    -29.57939281	     -3.13204478	     -7.09603118
      4.11000000	      5.48887931	      2.17017484	      3.74357031	     -2.77577630	      0.92027153	      0.25856206	     20.50432005	     -0.90011016	     -6.65543871	    -10.88071927	     -0.38608620	     -1.82230352	      0.00000000	    -24.57395719	      3.33756938	      7.59281635	    -15.68730197	     15.59286571	     -6.92103565	      0.00000000	    -29.79368532	     -2.29797799	     -6.41681739
      4.12000000	      5.91264937	      1.49388760	      3.37449954	     -2.75996889	      0.92073866	      0.25982523	     20.52982093	      0.11228834	     -5.48896857	    -13.24815188	     -1.71767815	     -4.13711862	      0.00000000	    -24.49062206	      2.67375549	      6.21968543	    -18.34967112	     14.13431147	     -5.80154525	      0.00000000	    -29.99375995	     -1.47752666	     -5.77533449
      4.13000000	      6.40800108	      0.85750003	      2.95887211	     -2.74414735	      0.92161127	      0.26124075	     20.35482944	      1.11153389	     -4.41817747	    -15.48924851	     -2.36147939	     -5.79765672	      0.00000000	    -24.24818759	      2.00321623	      4.50742980	    -21.35592314	     12.20475512	     -4.50281076	      0.00000000	    -30.30240840	     -0.73597977	     -5.11699773
      4.14000000	      6.86090829	      0.24664925	      2.65761414	     -2.72834818	      0.92277657	      0.26258754	     20.03553233	      2.04814033	     -3.63360518	    -17.49186903	     -2.33886137	     -6.94470269	      0.00000000	    -23.69520385	      1.24607516	      2.75137451	    -24.70157200	      9.70674623	     -3.30181186	      0.00000000	    -30.57828052	      0.00527468	     -4.58805966
      4.15000000	      7.24599717	     -0.34695327	      2.47733986	     -2.71270512	      0.92416384	      0.26382452	     19.57620988	      2.92109645	     -3.11018943	    -19.18166203	     -1.74693167	     -7.68606211	      0.00000000	    -22.79242372	      0.38839129	      1.07092487	    -28.35345224	      6.60462211	     -2.36581201	      0.00000000	    -30.80434131	      0.77124755	     -4.19216837
      4.16000000	      7.53989422	     -0.92391009	      2.46087423	     -2.69737779	      0.92569978	      0.26494889	     19.00642589	      3.71445222	     -2.89475107	    -20.52708401	     -0.72526401	     -8.11890239	      0.00000000	    -21.50752292	     -0.58676066	     -0.38751242	    -32.26058069	      2.98147872	     -1.76250600	      0.00000000	    -30.97042631	      1.55631831	     -3.94896851
      4.17000000	      7.64319332	     -1.50231559	      2.48969155	     -2.68240925	      0.92715399	      0.26602683	     18.47846653	      4.46411664	     -2.89526802	    -21.57153046	      0.59697066	     -8.23656268	      0.00000000	    -19.77970798	     -1.61984555	     -1.64646515	    -36.31387018	     -1.04128630	     -1.64499904	      0.00000000	    -30.95001147	      2.33400024	     -3.71418748
      4.18000000	      7.59337781	     -2.13560831	      2.74088594	     -2.66780496	      0.92860929	      0.26673793	     17.92692599	      5.16705629	     -3.25697332	    -22.24226834	      2.01455939	     -8.12000539	      0.00000000	    -17.65117550	     -2.77340055	     -2.43924177	    -40.44605227	     -5.26587821	     -2.10745501	      0.00000000	    -30.77114594	      3.26647173	     -3.65664824
      4.19000000	      7.38254246	     -2.82459282	      3.09488298	     -2.65360571	      0.92994612	      0.26720427	     17.40982295	      5.86672853	     -3.80170355	    -22.59772507	      3.40320459	     -7.81456953	      0.00000000	    -15.16184116	     -3.96194189	     -2.85679335	    -44.57099679	     -9.38315393	     -3.11882752	      0.00000000	    -30.43049820	      4.29412355	     -3.59636008
      4.20000000	      6.89773654	     -3.55317669	      3.46101076	     -2.63979328	      0.93090416	      0.26754916	     17.11886596	      6.55415981	     -4.51182619	    -22.75643172	      4.77035700	     -7.26355748	      0.00000000	    -12.22326823	     -5.12569882	     -3.02935977	    -48.65928729	    -13.00235551	     -4.52118329	      0.00000000	    -29.78845588	      5.35114940	     -3.55649580
      4.21000000	      6.46515279	     -4.29503646	      3.86957512	     -2.62629046	      0.93199330	      0.26774345	     16.65197793	      7.25569244	     -5.22574463	    -22.62119770	      5.92423505	     -6.78473891	      0.00000000	     -9.26399618	     -6.22421060	     -2.95563136	    -52.53873890	    -16.04470440	     -6.37083792	      0.00000000	    -29.22563284	      6.42110594	     -3.50667918
      4.22000000	      6.01137306	     -5.00389718	      4.23752881	     -2.61300244	      0.93310562	      0.26793036	     16.13116092	      7.94253372	     -5.87190493	    -22.29745750	      6.92096825	     -6.31863939	      0.00000000	     -6.26069416	     -7.19401383	     -2.75773954	    -56.15511236	    -18.24059390	     -8.41480279	      0.00000000	    -28.64750340	      7.40629742	     -3.41268975
      4.23000000	      5.58638114	     -5.62841358	      4.52439197	     -2.59992720	      0.93434906	      0.26818707	     15.51289875	      8.58456722	     -6.36223853	    -21.82228831	      7.75367500	     -5.89888723	      0.00000000	     -3.30952810	     -7.99495508	     -2.53391454	    -59.44774901	    -19.50269675	    -10.45271434	      0.00000000	    -28.13656153	      8.23152407	     -3.26432881
      4.24000000	      5.37716192	     -6.13038601	      4.76563385	     -2.58696650	      0.93606378	      0.26855250	     14.56257512	      9.17712424	     -6.61538040	    -21.15481032	      8.37540915	     -5.64877635	      0.00000000	     -0.66727871	     -8.63019999	     -2.32864186	    -62.30489920	    -19.89994011	    -12.36020265	      0.00000000	    -27.90928115	      8.86394947	     -3.08208810
      4.25000000	      5.02457061	     -6.46327405	      4.87409444	     -2.57422385	      0.93768671	      0.26906304	     13.75803943	      9.60666372	     -6.76157597	    -20.49060268	      8.97891980	     -5.31848301	      0.00000000	      2.05717111	     -9.02604342	     -2.20662798	    -64.79051466	    -19.28869270	    -13.84661670	      0.00000000	    -27.56287426	      9.21844542	     -2.83876234
      4.26000000	      4.76678436	     -6.63246523	      4.83717725	     -2.56158861	      0.93960836	      0.26982166	     12.79001109	      9.92808381	     -6.64432197	    -19.74911624	      9.48179374	     -5.03104491	      0.00000000	      4.54292378	     -9.24288114	     -2.24099231	    -66.80690109	    -17.86352369	    -14.77358866	      0.00000000	    -27.38008124	      9.28908017	     -2.45937602
      4.27000000	      4.66090572	     -6.62070464	      4.72605999	     -2.54902344	      0.94190464	      0.27069985	     11.59210637	     10.09774348	     -6.39853117	    -18.91878511	      9.91090438	     -4.78243601	      0.00000000	      6.71688493	     -9.27895505	     -2.43203270	    -68.31437948	    -15.87909127	    -15.36981522	      0.00000000	    -27.41121201	      9.09831807	     -2.06058637
